#!OML:ASF X:\für Bonn\!DataBase\2005_08_12_Daniel\c3d\Daniel.ASF
:FULLY-SPECIFIED
:DEGREES
1
root 4.43432 16.9425 -2.68913 -132.923 -84.0683 126.549
lowerback 14.7335 -6.04598 -3.64566
upperback 4.96713 -8.98772 -4.24386
thorax -3.06596 -4.58229 -0.87199
lowerneck 9.81495 11.2615 -6.99703
upperneck 2.75968 13.7935 -4.67808
head -0.866897 6.75142 -0.848605
rclavicle 3.71727e-014 -3.18055e-014
rhumerus -51.09 -25.6964 -62.0434
rradius 17.3118
rwrist 50.5507
rhand -18.3898 24.2887
rfingers 7.12502
rthumb 7.89412 -5.54387
lclavicle 3.71727e-014 -3.18055e-014
lhumerus -27.7298 -9.94198 84.3371
lradius 131.873
lwrist 11.3043
lhand -21.187 -23.9679
lfingers 7.12502
lthumb 5.19376 5.94844
rfemur -19.6709 -1.13468 18.3845
rtibia 48.3532
rfoot -28.7665 -11.302
rtoes -0.415723
lfemur -3.27895 -7.09194 -19.2528
ltibia 51.5057
lfoot -25.409 17.0881
ltoes -30.2157
2
root 4.41797 16.9322 -2.68292 -134.183 -83.9668 127.963
lowerback 14.4045 -6.15293 -3.68558
upperback 4.76436 -9.10003 -4.06359
thorax -3.06716 -4.62955 -0.671585
lowerneck 9.35383 11.3121 -6.87225
upperneck 2.89967 13.9323 -4.90368
head -0.718915 6.81435 -0.903855
rclavicle -1.39149e-015 2.8625e-014
rhumerus -51.051 -25.5752 -61.9658
rradius 17.3878
rwrist 49.8572
rhand -18.4115 24.1543
rfingers 7.12502
rthumb 7.87316 -5.67913
lclavicle -1.39149e-015 2.8625e-014
lhumerus -28.2257 -9.64297 84.5031
lradius 131.9
lwrist 11.304
lhand -21.3385 -23.9792
lfingers 7.12502
lthumb 5.04747 5.94073
rfemur -19.9785 -1.44247 18.3477
rtibia 48.6211
rfoot -28.7137 -10.885
rtoes -0.642886
lfemur -2.81979 -7.37042 -19.4378
ltibia 50.8771
lfoot -26.2509 17.3927
ltoes -30.4354
3
root 4.40177 16.9217 -2.67727 -135.695 -83.8468 129.64
lowerback 14.0692 -6.24176 -3.68302
upperback 4.54278 -9.18316 -3.88717
thorax -3.09089 -4.66139 -0.502981
lowerneck 8.9142 11.3565 -6.73953
upperneck 3.06852 14.0617 -5.1196
head -0.566079 6.87021 -0.956184
rclavicle 4.77083e-015 -1.98785e-014
rhumerus -51.0144 -25.3877 -61.9194
rradius 17.4788
rwrist 49.1218
rhand -18.4261 24.0393
rfingers 7.12502
rthumb 7.85905 -5.79463
lclavicle 4.77083e-015 -1.98785e-014
lhumerus -28.7913 -9.31863 84.6991
lradius 131.938
lwrist 11.3303
lhand -21.3589 -24.0204
lfingers 7.12502
lthumb 5.0278 5.89993
rfemur -20.3055 -1.7155 18.3315
rtibia 48.8977
rfoot -28.6657 -10.4852
rtoes -0.949113
lfemur -2.42856 -7.56538 -19.5771
ltibia 50.333
lfoot -27.0118 17.6393
ltoes -30.6194
4
root 4.38556 16.9104 -2.6715 -137.039 -83.702 131.13
lowerback 13.747 -6.32914 -3.68494
upperback 4.32494 -9.2672 -3.71746
thorax -3.11703 -4.69402 -0.33848
lowerneck 8.46649 11.4077 -6.62321
upperneck 3.24587 14.2001 -5.31286
head -0.412741 6.92885 -0.99817
rclavicle -5.20816e-014 -6.36111e-015
rhumerus -50.9316 -25.1399 -61.9116
rradius 17.6176
rwrist 48.4698
rhand -18.4479 23.9944
rfingers 7.12502
rthumb 7.83801 -5.8403
lclavicle -5.20816e-014 -6.36111e-015
lhumerus -29.3285 -8.94233 84.8795
lradius 131.932
lwrist 11.3973
lhand -21.2572 -24.0528
lfingers 7.12502
lthumb 5.126 5.86518
rfemur -20.6185 -2.00621 18.2918
rtibia 49.182
rfoot -28.6211 -10.0538
rtoes -1.14507
lfemur -2.0832 -7.75885 -19.7474
ltibia 49.8908
lfoot -27.697 17.9061
ltoes -30.7328
5
root 4.3693 16.8981 -2.66553 -138.477 -83.5407 132.709
lowerback 13.4059 -6.403 -3.6147
upperback 4.11515 -9.32558 -3.58037
thorax -3.14089 -4.71472 -0.253154
lowerneck 7.96972 11.4524 -6.46662
upperneck 3.50019 14.3433 -5.4882
head -0.226282 6.98515 -1.03356
rclavicle -2.17669e-014 4.85035e-014
rhumerus -50.7808 -24.667 -62.1506
rradius 17.8289
rwrist 47.666
rhand -18.5203 24.1388
rfingers 7.12502
rthumb 7.76816 -5.69851
lclavicle -2.17669e-014 4.85035e-014
lhumerus -29.7848 -8.57789 84.9989
lradius 131.856
lwrist 11.5501
lhand -21.062 -24.0835
lfingers 7.12502
lthumb 5.31446 5.82986
rfemur -20.9286 -2.255 18.2569
rtibia 49.4769
rfoot -28.5817 -9.6389
rtoes -1.42998
lfemur -1.80268 -7.87607 -19.8935
ltibia 49.5634
lfoot -28.2783 18.1552
ltoes -30.8314
